<mxfile host="app.diagrams.net" modified="2022-03-14T12:45:36.382Z" agent="5.0 (Windows NT 10.0; Win64; x64) AppleWebKit/537.36 (KHTML, like Gecko) Chrome/99.0.4844.51 Safari/537.36" etag="Q4o32uzofh8EkYovUVaA" version="17.1.2" type="github">
  <diagram id="NOXh-2bNkg44RO72hvKI" name="Page-1">
    <mxGraphModel dx="460" dy="784" grid="1" gridSize="10" guides="1" tooltips="1" connect="1" arrows="1" fold="1" page="1" pageScale="1" pageWidth="827" pageHeight="1169" math="0" shadow="0">
      <root>
        <mxCell id="0" />
        <mxCell id="1" parent="0" />
        <mxCell id="0LwVWPv9FhIqvph4aOhf-2" value="메인 페이지" style="swimlane;startSize=40;fillColor=#f8cecc;strokeColor=#b85450;labelBackgroundColor=none;" parent="1" vertex="1">
          <mxGeometry x="50" y="50" width="190" height="180" as="geometry">
            <mxRectangle x="50" y="50" width="100" height="40" as="alternateBounds" />
          </mxGeometry>
        </mxCell>
        <mxCell id="0LwVWPv9FhIqvph4aOhf-32" value="&lt;span style=&quot;text-align: center;&quot;&gt;상단, 메인이미지, 컨텐츠&lt;/span&gt;" style="whiteSpace=wrap;html=1;labelBackgroundColor=none;align=left;" parent="0LwVWPv9FhIqvph4aOhf-2" vertex="1">
          <mxGeometry y="40" width="190" height="140" as="geometry" />
        </mxCell>
        <mxCell id="0LwVWPv9FhIqvph4aOhf-17" value="상단 부분" style="swimlane;startSize=40;fillColor=#fff2cc;strokeColor=#d6b656;labelBackgroundColor=none;" parent="1" vertex="1">
          <mxGeometry x="260" y="50" width="190" height="180" as="geometry">
            <mxRectangle x="50" y="50" width="100" height="40" as="alternateBounds" />
          </mxGeometry>
        </mxCell>
        <mxCell id="0LwVWPv9FhIqvph4aOhf-34" value="&lt;span style=&quot;text-align: center&quot;&gt;로그인, 회원가입, 검색창,&lt;/span&gt;&lt;br style=&quot;text-align: center&quot;&gt;&lt;span style=&quot;text-align: center&quot;&gt;&amp;nbsp;카테고리, 마이페이지, 고객센터&lt;/span&gt;" style="whiteSpace=wrap;html=1;labelBackgroundColor=none;align=left;" parent="0LwVWPv9FhIqvph4aOhf-17" vertex="1">
          <mxGeometry y="40" width="190" height="140" as="geometry" />
        </mxCell>
        <mxCell id="0LwVWPv9FhIqvph4aOhf-19" value="메인 이미지" style="swimlane;startSize=40;fillColor=#e1d5e7;strokeColor=#9673a6;labelBackgroundColor=none;" parent="1" vertex="1">
          <mxGeometry x="470" y="50" width="190" height="180" as="geometry">
            <mxRectangle x="50" y="50" width="100" height="40" as="alternateBounds" />
          </mxGeometry>
        </mxCell>
        <mxCell id="0LwVWPv9FhIqvph4aOhf-36" value="제품페이지 &amp;gt; 이미지 슬라이드 구현 및 클릭 시 상세페이지 이동" style="whiteSpace=wrap;html=1;labelBackgroundColor=none;align=left;" parent="0LwVWPv9FhIqvph4aOhf-19" vertex="1">
          <mxGeometry y="40" width="190" height="140" as="geometry" />
        </mxCell>
        <mxCell id="0LwVWPv9FhIqvph4aOhf-21" value="컨텐츠" style="swimlane;startSize=40;fillColor=#d5e8d4;strokeColor=#82b366;labelBackgroundColor=none;" parent="1" vertex="1">
          <mxGeometry x="680" y="50" width="190" height="180" as="geometry">
            <mxRectangle x="50" y="50" width="100" height="40" as="alternateBounds" />
          </mxGeometry>
        </mxCell>
        <mxCell id="0LwVWPv9FhIqvph4aOhf-37" value="" style="whiteSpace=wrap;html=1;labelBackgroundColor=none;align=left;" parent="0LwVWPv9FhIqvph4aOhf-21" vertex="1">
          <mxGeometry y="40" width="190" height="140" as="geometry" />
        </mxCell>
        <mxCell id="0LwVWPv9FhIqvph4aOhf-25" value="상단 부분" style="swimlane;startSize=40;fillColor=#fff2cc;strokeColor=#d6b656;labelBackgroundColor=none;" parent="1" vertex="1">
          <mxGeometry x="50" y="260" width="190" height="180" as="geometry">
            <mxRectangle x="50" y="50" width="100" height="40" as="alternateBounds" />
          </mxGeometry>
        </mxCell>
        <mxCell id="0LwVWPv9FhIqvph4aOhf-31" value="&lt;span style=&quot;text-align: center&quot;&gt;로그인, 회원가입, 검색창,&lt;/span&gt;&lt;br style=&quot;text-align: center&quot;&gt;&lt;span style=&quot;text-align: center&quot;&gt;&amp;nbsp;카테고리, 마이페이지, 고객센터&lt;/span&gt;" style="whiteSpace=wrap;html=1;labelBackgroundColor=none;align=left;" parent="0LwVWPv9FhIqvph4aOhf-25" vertex="1">
          <mxGeometry y="40" width="190" height="140" as="geometry" />
        </mxCell>
        <mxCell id="0LwVWPv9FhIqvph4aOhf-27" value="로그인 화면" style="swimlane;startSize=40;fillColor=#fff2cc;strokeColor=#d6b656;labelBackgroundColor=none;" parent="1" vertex="1">
          <mxGeometry x="260" y="260" width="190" height="180" as="geometry">
            <mxRectangle x="50" y="50" width="100" height="40" as="alternateBounds" />
          </mxGeometry>
        </mxCell>
        <mxCell id="0LwVWPv9FhIqvph4aOhf-30" value="아이디/패스워드 입력 폼박스&lt;br&gt;자동로그인&lt;br&gt;SNS로그인 기능&lt;br&gt;아이디/비밀번호 찾기&lt;br&gt;로그인 버튼 / 회원가입 버튼" style="whiteSpace=wrap;html=1;labelBackgroundColor=none;align=left;" parent="0LwVWPv9FhIqvph4aOhf-27" vertex="1">
          <mxGeometry y="40" width="190" height="140" as="geometry" />
        </mxCell>
        <mxCell id="0LwVWPv9FhIqvph4aOhf-38" value="회원가입 화면" style="swimlane;startSize=40;fillColor=#fff2cc;strokeColor=#d6b656;labelBackgroundColor=none;" parent="1" vertex="1">
          <mxGeometry x="470" y="260" width="190" height="180" as="geometry">
            <mxRectangle x="470" y="260" width="100" height="40" as="alternateBounds" />
          </mxGeometry>
        </mxCell>
        <mxCell id="0LwVWPv9FhIqvph4aOhf-39" value="아이디 / 비밀번호 / 비밀번호 확인 / 이름 / 전화번호 / 이메일 입력 폼박스" style="whiteSpace=wrap;html=1;labelBackgroundColor=none;align=left;" parent="0LwVWPv9FhIqvph4aOhf-38" vertex="1">
          <mxGeometry y="40" width="190" height="140" as="geometry" />
        </mxCell>
        <mxCell id="0LwVWPv9FhIqvph4aOhf-40" value="검색창" style="swimlane;startSize=40;fillColor=#fff2cc;strokeColor=#d6b656;labelBackgroundColor=none;" parent="1" vertex="1">
          <mxGeometry x="680" y="260" width="190" height="180" as="geometry">
            <mxRectangle x="50" y="50" width="100" height="40" as="alternateBounds" />
          </mxGeometry>
        </mxCell>
        <mxCell id="0LwVWPv9FhIqvph4aOhf-41" value="입력에 따른 결과 출력기능 구현" style="whiteSpace=wrap;html=1;labelBackgroundColor=none;align=left;" parent="0LwVWPv9FhIqvph4aOhf-40" vertex="1">
          <mxGeometry y="40" width="190" height="140" as="geometry" />
        </mxCell>
        <mxCell id="0LwVWPv9FhIqvph4aOhf-42" value="카테고리" style="swimlane;startSize=40;fillColor=#fff2cc;strokeColor=#d6b656;labelBackgroundColor=none;" parent="1" vertex="1">
          <mxGeometry x="890" y="260" width="190" height="180" as="geometry">
            <mxRectangle x="50" y="50" width="100" height="40" as="alternateBounds" />
          </mxGeometry>
        </mxCell>
        <mxCell id="0LwVWPv9FhIqvph4aOhf-43" value="&lt;div&gt;&lt;span&gt;마우스 hover시 카테고리 진열 및 하위 카테고리 구현&lt;/span&gt;&lt;/div&gt;&lt;div&gt;&lt;span&gt;카테고리 게시판 페이징 처리&lt;/span&gt;&lt;/div&gt;" style="whiteSpace=wrap;html=1;labelBackgroundColor=none;align=left;" parent="0LwVWPv9FhIqvph4aOhf-42" vertex="1">
          <mxGeometry y="40" width="190" height="140" as="geometry" />
        </mxCell>
        <mxCell id="0LwVWPv9FhIqvph4aOhf-44" value="메인 이미지" style="swimlane;startSize=40;fillColor=#e1d5e7;strokeColor=#9673a6;labelBackgroundColor=none;" parent="1" vertex="1">
          <mxGeometry x="50" y="470" width="190" height="180" as="geometry">
            <mxRectangle x="50" y="50" width="100" height="40" as="alternateBounds" />
          </mxGeometry>
        </mxCell>
        <mxCell id="0LwVWPv9FhIqvph4aOhf-45" value="제품페이지 &amp;gt; 이미지 슬라이드 구현 및 클릭 시 상세페이지 이동" style="whiteSpace=wrap;html=1;labelBackgroundColor=none;align=left;" parent="0LwVWPv9FhIqvph4aOhf-44" vertex="1">
          <mxGeometry y="40" width="190" height="140" as="geometry" />
        </mxCell>
        <mxCell id="0LwVWPv9FhIqvph4aOhf-46" value="상세 페이지" style="swimlane;startSize=40;fillColor=#e1d5e7;strokeColor=#9673a6;labelBackgroundColor=none;" parent="1" vertex="1">
          <mxGeometry x="260" y="470" width="190" height="180" as="geometry">
            <mxRectangle x="50" y="50" width="100" height="40" as="alternateBounds" />
          </mxGeometry>
        </mxCell>
        <mxCell id="0LwVWPv9FhIqvph4aOhf-47" value="제품에 맞는 옵션 보기 구현,&amp;nbsp; 구매하기 및 장바구니 버튼 실행결과 연동&amp;nbsp;" style="whiteSpace=wrap;html=1;labelBackgroundColor=none;align=left;" parent="0LwVWPv9FhIqvph4aOhf-46" vertex="1">
          <mxGeometry y="40" width="190" height="140" as="geometry" />
        </mxCell>
        <mxCell id="0LwVWPv9FhIqvph4aOhf-48" value="마이페이지" style="swimlane;startSize=40;fillColor=#fff2cc;strokeColor=#d6b656;labelBackgroundColor=none;" parent="1" vertex="1">
          <mxGeometry x="1100" y="260" width="190" height="180" as="geometry">
            <mxRectangle x="50" y="50" width="100" height="40" as="alternateBounds" />
          </mxGeometry>
        </mxCell>
        <mxCell id="0LwVWPv9FhIqvph4aOhf-49" value="&lt;div style=&quot;text-align: center&quot;&gt;장바구니 - 물건고유번호로 연동 및 상품이름, 가격, 수량 표기 및 구매 버튼(구매연동페이지) 구현&lt;/div&gt;&lt;div&gt;&lt;br&gt;&lt;/div&gt;&lt;div&gt;문의내역 - 게시판 구현 및 답변에 따른 답변상태 표기, 페이징 처리&lt;/div&gt;&lt;div&gt;&lt;br&gt;&lt;/div&gt;&lt;div&gt;회원정보 - 아이디, 비밀번호 등 개인정보 표기&lt;/div&gt;" style="whiteSpace=wrap;html=1;labelBackgroundColor=none;align=left;" parent="0LwVWPv9FhIqvph4aOhf-48" vertex="1">
          <mxGeometry y="40" width="190" height="140" as="geometry" />
        </mxCell>
        <mxCell id="jWR0fURls2ukk9am0VE0-1" value="고객센터" style="swimlane;startSize=40;fillColor=#fff2cc;strokeColor=#d6b656;labelBackgroundColor=none;" vertex="1" parent="1">
          <mxGeometry x="1310" y="260" width="190" height="180" as="geometry">
            <mxRectangle x="50" y="50" width="100" height="40" as="alternateBounds" />
          </mxGeometry>
        </mxCell>
        <mxCell id="jWR0fURls2ukk9am0VE0-2" value="&lt;div style=&quot;text-align: center&quot;&gt;상담문의 - 마이페이지 문의내역과 결과 연동&lt;/div&gt;" style="whiteSpace=wrap;html=1;labelBackgroundColor=none;align=left;" vertex="1" parent="jWR0fURls2ukk9am0VE0-1">
          <mxGeometry y="40" width="190" height="140" as="geometry" />
        </mxCell>
      </root>
    </mxGraphModel>
  </diagram>
</mxfile>
